# xmcd
#
# Track frame offsets:
#	150
#	22138
#	37703
#	61307
#	80938
#	97669
#	109106
#	124383
#	139004
#	155475
#	170339
#	187642
#
# Disc length: 2728 seconds
#
# Revision: 0
# Processed by: cddbd v1.4PL0 Copyright (c) Steve Scherf et al.
# Submitted via: dBpowerAMP V4.0
#
DISCID=930aa60c
DTITLE=Dixie chicks - Greatest hits
DYEAR=1900
DGENRE=Country
TTITLE0=Cowboy take me away
TTITLE1=Am i the only one
TTITLE2=Cold day in july
TTITLE3=Goodbye earl
TTITLE4=Sin wagon
TTITLE5=Some days you gotta dance
TTITLE6=Stand by your man
TTITLE7=Theres your trouble
TTITLE8=You were mine
TTITLE9=Roly poly
TTITLE10=Heartbreak town
TTITLE11=Ready to run
EXTD=submitted by Chris Corcoran
EXTT0=
EXTT1=
EXTT2=
EXTT3=
EXTT4=
EXTT5=
EXTT6=
EXTT7=
EXTT8=
EXTT9=
EXTT10=
EXTT11=
PLAYORDER=
